#N canvas 559 41 1749 836 10;
#X declare -path ./sounds;
#X obj 259 214 bng 15 250 50 0 empty empty empty 17 7 0 10 -262144
-1 -1;
#X obj 397 215 bng 15 250 50 0 empty empty empty 17 7 0 10 -262144
-1 -1;
#X obj 130 220 bng 15 250 50 0 empty empty empty 17 7 0 10 -262144
-1 -1;
#X obj 768 45 bng 15 250 50 0 empty empty empty 17 7 0 10 -262144 -1
-1;
#X obj 170 166 bng 15 250 50 0 empty empty empty 17 7 0 10 -262144
-1 -1;
#X obj 299 157 bng 15 250 50 0 empty empty empty 17 7 0 10 -262144
-1 -1;
#X obj 32 169 bng 15 250 50 0 empty empty empty 17 7 0 10 -262144 -1
-1;
#X obj 30 193 tabplay~ Marimba1;
#X obj 169 186 tabplay~ Marimba2;
#X obj 1091 77 tgl 15 0 empty empty empty 17 7 0 10 -262144 -1 -1 1
1;
#X obj 1093 169 sel 0;
#X obj 1093 205 random 4;
#X obj 954 280 bng 15 250 50 0 empty empty empty 17 7 0 10 -262144
-1 -1;
#X obj 1049 280 bng 15 250 50 0 empty empty empty 17 7 0 10 -262144
-1 -1;
#X obj 1158 281 bng 15 250 50 0 empty empty empty 17 7 0 10 -262144
-1 -1;
#X obj 1267 278 bng 15 250 50 0 empty empty empty 17 7 0 10 -262144
-1 -1;
#X obj 901 318 tabplay~ Bloop1;
#X obj 1005 318 tabplay~ Bloop2;
#X obj 1109 315 tabplay~ Bloop3;
#X obj 1214 316 tabplay~ Bloop4;
#X obj 1229 66 tabplay~ Drone;
#X obj 1387 103 bng 15 250 50 0 empty empty empty 17 7 0 10 -262144
-1 -1;
#X obj 72 656 loadbang;
#X obj 71 688 del 4000;
#X msg 72 719 \; pd dsp 1;
#X msg 153 712 \; pd audio-dialog 3 0 0 0 2 0 0 0 3 0 0 0 2 0 0 0 44100
25 0 64;
#X obj 152 686 del 2000;
#X obj 286 124 sel 0 1 2 3 4 5;
#X obj 266 294 bng 15 250 50 0 empty empty empty 17 7 0 10 -262144
-1 -1;
#X obj 404 289 bng 15 250 50 0 empty empty empty 17 7 0 10 -262144
-1 -1;
#X obj 137 300 bng 15 250 50 0 empty empty empty 17 7 0 10 -262144
-1 -1;
#X obj 177 246 bng 15 250 50 0 empty empty empty 17 7 0 10 -262144
-1 -1;
#X obj 306 242 bng 15 250 50 0 empty empty empty 17 7 0 10 -262144
-1 -1;
#X obj 39 249 bng 15 250 50 0 empty empty empty 17 7 0 10 -262144 -1
-1;
#X obj 1386 279 bng 15 250 50 0 empty empty empty 17 7 0 10 -262144
-1 -1;
#X obj 1094 241 sel 0 1 2 3 4;
#X obj 1333 317 tabplay~ Bloop5;
#X obj 37 273 tabplay~ Marimba4;
#X obj 176 266 tabplay~ Marimba5;
#X obj 306 262 tabplay~ Marimba6;
#X obj 696 219 bng 15 250 50 0 empty empty empty 17 7 0 10 -262144
-1 -1;
#X obj 834 214 bng 15 250 50 0 empty empty empty 17 7 0 10 -262144
-1 -1;
#X obj 567 225 bng 15 250 50 0 empty empty empty 17 7 0 10 -262144
-1 -1;
#X obj 607 171 bng 15 250 50 0 empty empty empty 17 7 0 10 -262144
-1 -1;
#X obj 736 162 bng 15 250 50 0 empty empty empty 17 7 0 10 -262144
-1 -1;
#X obj 469 174 bng 15 250 50 0 empty empty empty 17 7 0 10 -262144
-1 -1;
#X obj 703 299 bng 15 250 50 0 empty empty empty 17 7 0 10 -262144
-1 -1;
#X obj 574 305 bng 15 250 50 0 empty empty empty 17 7 0 10 -262144
-1 -1;
#X obj 614 251 bng 15 250 50 0 empty empty empty 17 7 0 10 -262144
-1 -1;
#X obj 476 254 bng 15 250 50 0 empty empty empty 17 7 0 10 -262144
-1 -1;
#X obj 723 129 sel 0 1 2 3 4;
#X obj 467 198 tabplay~ Drums1;
#X obj 606 191 tabplay~ Drums2;
#X obj 736 187 tabplay~ Drums3;
#X obj 474 278 tabplay~ Drums4;
#X obj 613 271 tabplay~ Drums5;
#X obj 723 91 random 5;
#X obj 299 182 tabplay~ Marimba2;
#X obj 286 86 random 6;
#X obj 55 42 declare -path ./sounds;
#X obj 689 11 loadbang;
#X obj 139 487 catch~ marimba;
#X obj 248 486 catch~ drums;
#X obj 356 487 catch~ bloop;
#X obj 41 486 catch~ drone;
#X obj 45 576 dac~;
#X obj 1230 114 throw~ drone;
#X obj 38 300 throw~ marimba;
#X obj 31 219 throw~ marimba;
#X obj 169 216 throw~ marimba;
#X obj 176 296 throw~ marimba;
#X obj 298 214 throw~ marimba;
#X obj 305 294 throw~ marimba;
#X obj 468 225 throw~ drums;
#X obj 606 221 throw~ drums;
#X obj 735 219 throw~ drums;
#X obj 475 305 throw~ drums;
#X obj 613 301 throw~ drums;
#X obj 901 349 throw~ bloop;
#X obj 1004 346 throw~ bloop;
#X obj 1105 347 throw~ bloop;
#X obj 1213 342 throw~ bloop;
#X obj 1332 343 throw~ bloop;
#X obj 141 579 dac~;
#X obj 250 582 dac~;
#X obj 479 369 tgl 15 0 empty empty empty 17 7 0 10 -262144 -1 -1 1
1;
#X obj 479 347 loadbang;
#X obj 250 547 *~ 0.4;
#X obj 140 545 *~ 0.6;
#X obj 1091 106 metro 600;
#N canvas 0 23 1448 515 load_files 0;
#X obj 138 143 table Marimba1;
#X obj 25 140 soundfiler;
#X obj 282 140 soundfiler;
#X obj 517 142 soundfiler;
#X obj 400 139 table Marimba2;
#X obj 637 144 table Marimba3;
#X obj 5 299 soundfiler;
#X msg 4 270 read -resize Bloop1.wav Bloop1;
#X obj 125 301 table Bloop1;
#X obj 214 300 soundfiler;
#X obj 424 303 soundfiler;
#X obj 631 304 soundfiler;
#X obj 334 302 table Bloop2;
#X msg 213 271 read -resize Bloop2.wav Bloop2;
#X obj 544 305 table Bloop3;
#X msg 423 274 read -resize Bloop3.wav Bloop3;
#X msg 630 275 read -resize Bloop4.wav Bloop4;
#X obj 751 306 table Bloop4;
#X obj 230 369 soundfiler;
#X msg 229 340 read -resize Drone.wav Drone;
#X obj 350 371 table Drone;
#X msg 24 111 read -resize Marimba1.wav Marimba1;
#X msg 281 111 read -resize Marimba2.wav Marimba2;
#X msg 516 113 read -resize Marimba3.wav Marimba3;
#X obj 233 43 loadbang, f 18;
#X obj 739 147 soundfiler;
#X obj 961 151 soundfiler;
#X obj 444 369 soundfiler;
#X msg 738 118 read -resize Marimba4.wav Marimba4;
#X obj 859 149 table Marimba4;
#X msg 960 122 read -resize Marimba5.wav Marimba5;
#X obj 1081 153 table Marimba5;
#X msg 443 340 read -resize Marimba6.wav Marimba6;
#X obj 564 371 table Marimba6;
#X obj 24 228 soundfiler;
#X msg 23 199 read -resize Drums1.wav Drums1;
#X obj 137 231 table Drums1;
#X obj 283 225 soundfiler;
#X obj 521 226 soundfiler;
#X obj 746 231 soundfiler;
#X obj 963 233 soundfiler;
#X obj 846 307 soundfiler;
#X msg 845 278 read -resize Bloop5.wav Bloop5;
#X obj 966 309 table Bloop5;
#X msg 282 196 read -resize Drums2.wav Drums2;
#X obj 396 228 table Drums2;
#X obj 634 229 table Drums3;
#X msg 520 197 read -resize Drums3.wav Drums3;
#X msg 745 202 read -resize Drums4.wav Drums4;
#X obj 859 234 table Drums4;
#X msg 962 204 read -resize Drums5.wav Drums5;
#X obj 1076 236 table Drums5;
#X connect 7 0 6 0;
#X connect 13 0 9 0;
#X connect 15 0 10 0;
#X connect 16 0 11 0;
#X connect 19 0 18 0;
#X connect 21 0 1 0;
#X connect 22 0 2 0;
#X connect 23 0 3 0;
#X connect 24 0 21 0;
#X connect 24 0 22 0;
#X connect 24 0 23 0;
#X connect 24 0 7 0;
#X connect 24 0 13 0;
#X connect 24 0 15 0;
#X connect 24 0 16 0;
#X connect 24 0 28 0;
#X connect 24 0 30 0;
#X connect 24 0 32 0;
#X connect 24 0 35 0;
#X connect 24 0 44 0;
#X connect 24 0 47 0;
#X connect 24 0 48 0;
#X connect 24 0 50 0;
#X connect 24 0 19 0;
#X connect 28 0 25 0;
#X connect 30 0 26 0;
#X connect 32 0 27 0;
#X connect 35 0 34 0;
#X connect 42 0 41 0;
#X connect 44 0 37 0;
#X connect 47 0 38 0;
#X connect 48 0 39 0;
#X connect 50 0 40 0;
#X restore 55 72 pd load_files;
#X floatatom 476 454 5 0 0 0 - - -;
#X obj 478 412 random 100;
#X msg 476 473 \$1;
#X obj 477 516 line;
#X floatatom 504 549 5 0 0 0 - - -;
#X obj 477 433 / 100;
#X obj 392 548 *~;
#X obj 393 583 dac~;
#X obj 699 510 table Marimba1;
#X obj 586 507 soundfiler;
#X obj 843 507 soundfiler;
#X obj 1078 509 soundfiler;
#X obj 961 506 table Marimba2;
#X obj 1198 511 table Marimba3;
#X obj 566 666 soundfiler;
#X msg 565 637 read -resize Bloop1.wav Bloop1;
#X obj 686 668 table Bloop1;
#X obj 775 667 soundfiler;
#X obj 985 670 soundfiler;
#X obj 1192 671 soundfiler;
#X obj 895 669 table Bloop2;
#X msg 774 638 read -resize Bloop2.wav Bloop2;
#X obj 1105 672 table Bloop3;
#X msg 984 641 read -resize Bloop3.wav Bloop3;
#X msg 1191 642 read -resize Bloop4.wav Bloop4;
#X obj 1312 673 table Bloop4;
#X obj 791 736 soundfiler;
#X msg 790 707 read -resize Drone.wav Drone;
#X obj 911 738 table Drone;
#X msg 585 478 read -resize Marimba1.wav Marimba1;
#X msg 842 478 read -resize Marimba2.wav Marimba2;
#X msg 1077 480 read -resize Marimba3.wav Marimba3;
#X obj 794 410 loadbang, f 18;
#X obj 1300 514 soundfiler;
#X obj 1522 518 soundfiler;
#X obj 1005 736 soundfiler;
#X msg 1299 485 read -resize Marimba4.wav Marimba4;
#X obj 1420 516 table Marimba4;
#X msg 1521 489 read -resize Marimba5.wav Marimba5;
#X obj 1642 520 table Marimba5;
#X msg 1004 707 read -resize Marimba6.wav Marimba6;
#X obj 1125 738 table Marimba6;
#X obj 585 595 soundfiler;
#X msg 584 566 read -resize Drums1.wav Drums1;
#X obj 698 598 table Drums1;
#X obj 844 592 soundfiler;
#X obj 1082 593 soundfiler;
#X obj 1307 598 soundfiler;
#X obj 1524 600 soundfiler;
#X obj 1407 674 soundfiler;
#X msg 1406 645 read -resize Bloop5.wav Bloop5;
#X obj 1527 676 table Bloop5;
#X msg 843 563 read -resize Drums2.wav Drums2;
#X obj 957 595 table Drums2;
#X obj 1195 596 table Drums3;
#X msg 1081 564 read -resize Drums3.wav Drums3;
#X msg 1306 569 read -resize Drums4.wav Drums4;
#X obj 1420 601 table Drums4;
#X msg 1523 571 read -resize Drums5.wav Drums5;
#X obj 1637 603 table Drums5;
#X msg 477 493 \$1 600;
#X obj 1092 136 random 5;
#X obj 479 389 metro 3600;
#X connect 0 0 58 0;
#X connect 1 0 58 0;
#X connect 2 0 58 0;
#X connect 3 0 9 0;
#X connect 3 0 20 0;
#X connect 3 0 58 0;
#X connect 3 0 56 0;
#X connect 4 0 8 0;
#X connect 5 0 57 0;
#X connect 6 0 7 0;
#X connect 7 0 68 0;
#X connect 7 1 2 0;
#X connect 8 0 69 0;
#X connect 8 1 0 0;
#X connect 9 0 89 0;
#X connect 10 0 11 0;
#X connect 11 0 35 0;
#X connect 12 0 16 0;
#X connect 13 0 17 0;
#X connect 14 0 18 0;
#X connect 15 0 19 0;
#X connect 16 0 78 0;
#X connect 17 0 79 0;
#X connect 18 0 80 0;
#X connect 19 0 81 0;
#X connect 20 0 66 0;
#X connect 20 1 21 0;
#X connect 21 0 20 0;
#X connect 22 0 23 0;
#X connect 23 0 24 0;
#X connect 26 0 25 0;
#X connect 27 0 6 0;
#X connect 27 1 4 0;
#X connect 27 2 5 0;
#X connect 27 3 33 0;
#X connect 27 4 31 0;
#X connect 27 5 32 0;
#X connect 28 0 58 0;
#X connect 29 0 58 0;
#X connect 30 0 58 0;
#X connect 31 0 38 0;
#X connect 32 0 39 0;
#X connect 33 0 37 0;
#X connect 34 0 36 0;
#X connect 35 0 12 0;
#X connect 35 1 13 0;
#X connect 35 2 14 0;
#X connect 35 3 15 0;
#X connect 35 4 34 0;
#X connect 36 0 82 0;
#X connect 37 0 67 0;
#X connect 37 1 30 0;
#X connect 38 0 70 0;
#X connect 38 1 28 0;
#X connect 39 0 72 0;
#X connect 39 1 29 0;
#X connect 40 0 56 0;
#X connect 41 0 56 0;
#X connect 42 0 56 0;
#X connect 43 0 52 0;
#X connect 44 0 53 0;
#X connect 45 0 51 0;
#X connect 46 0 56 0;
#X connect 47 0 56 0;
#X connect 48 0 55 0;
#X connect 49 0 54 0;
#X connect 50 0 45 0;
#X connect 50 1 43 0;
#X connect 50 2 44 0;
#X connect 50 3 49 0;
#X connect 50 4 48 0;
#X connect 51 0 73 0;
#X connect 51 1 42 0;
#X connect 52 0 74 0;
#X connect 52 1 40 0;
#X connect 53 0 75 0;
#X connect 53 1 41 0;
#X connect 54 0 76 0;
#X connect 54 1 47 0;
#X connect 55 0 77 0;
#X connect 55 1 46 0;
#X connect 56 0 50 0;
#X connect 57 0 71 0;
#X connect 57 1 1 0;
#X connect 58 0 27 0;
#X connect 60 0 3 0;
#X connect 61 0 88 0;
#X connect 62 0 87 0;
#X connect 63 0 97 0;
#X connect 64 0 65 0;
#X connect 64 0 65 1;
#X connect 85 0 153 0;
#X connect 86 0 85 0;
#X connect 87 0 84 0;
#X connect 87 0 84 1;
#X connect 88 0 83 0;
#X connect 88 0 83 1;
#X connect 89 0 152 0;
#X connect 91 0 93 0;
#X connect 92 0 96 0;
#X connect 93 0 151 0;
#X connect 94 0 95 0;
#X connect 94 0 97 1;
#X connect 96 0 91 0;
#X connect 97 0 98 0;
#X connect 97 0 98 1;
#X connect 106 0 105 0;
#X connect 112 0 108 0;
#X connect 114 0 109 0;
#X connect 115 0 110 0;
#X connect 118 0 117 0;
#X connect 120 0 100 0;
#X connect 121 0 101 0;
#X connect 122 0 102 0;
#X connect 123 0 120 0;
#X connect 123 0 121 0;
#X connect 123 0 122 0;
#X connect 123 0 106 0;
#X connect 123 0 112 0;
#X connect 123 0 114 0;
#X connect 123 0 115 0;
#X connect 123 0 127 0;
#X connect 123 0 129 0;
#X connect 123 0 131 0;
#X connect 123 0 134 0;
#X connect 123 0 143 0;
#X connect 123 0 146 0;
#X connect 123 0 147 0;
#X connect 123 0 149 0;
#X connect 123 0 118 0;
#X connect 127 0 124 0;
#X connect 129 0 125 0;
#X connect 131 0 126 0;
#X connect 134 0 133 0;
#X connect 141 0 140 0;
#X connect 143 0 136 0;
#X connect 146 0 137 0;
#X connect 147 0 138 0;
#X connect 149 0 139 0;
#X connect 151 0 94 0;
#X connect 152 0 10 0;
#X connect 153 0 92 0;
